<svg width="24" height="24" viewBox="0 0 24 24" fill="none" xmlns="http://www.w3.org/2000/svg">
<path fill-rule="evenodd" clip-rule="evenodd" d="M2.54236 6.56488C2.78598 6.56482 3.02147 6.65258 3.20563 6.81207C3.3898 6.97156 3.51031 7.19208 3.54507 7.43322C3.55077 7.47337 3.57079 7.5101 3.60143 7.53666C3.63208 7.56321 3.6713 7.57779 3.71185 7.57771H6.0407C6.35269 7.57851 6.65484 7.68699 6.8961 7.88481C7.13735 8.08264 7.30292 8.35769 7.36482 8.66348L7.93066 11.4994C7.93273 11.5087 7.93701 11.5173 7.94312 11.5246C7.94923 11.5319 7.95699 11.5376 7.96577 11.5413C8.50265 11.7234 9.03 11.9326 9.5458 12.1679C9.67663 12.2614 9.78333 12.3847 9.85707 12.5276C9.93081 12.6705 9.96946 12.8288 9.96984 12.9896V15.6804C9.96984 15.949 9.86313 16.2067 9.67318 16.3966C9.48324 16.5866 9.22562 16.6933 8.957 16.6933H7.59642C7.57272 16.6933 7.5493 16.6883 7.52766 16.6786C7.50602 16.669 7.48666 16.6549 7.47083 16.6372C7.45514 16.6195 7.44327 16.5987 7.43595 16.5761C7.42863 16.5536 7.42602 16.5298 7.42829 16.5062C7.43448 16.4563 7.43764 16.406 7.43774 16.3556C7.43774 15.6841 7.17097 15.04 6.69611 14.5652C6.22125 14.0903 5.5772 13.8236 4.90565 13.8236C4.23409 13.8236 3.59004 14.0903 3.11518 14.5652C2.64032 15.04 2.37355 15.6841 2.37355 16.3556C2.37365 16.406 2.37681 16.4563 2.383 16.5062C2.38543 16.5298 2.38291 16.5537 2.37558 16.5762C2.36825 16.5988 2.35629 16.6196 2.34046 16.6372C2.32466 16.6549 2.3053 16.669 2.28366 16.6787C2.26202 16.6883 2.23857 16.6933 2.21487 16.6933H0.168939C0.145243 16.6933 0.121814 16.6883 0.100176 16.6786C0.0785371 16.669 0.0591743 16.6549 0.0433462 16.6372C0.0276571 16.6195 0.0157853 16.5987 0.0084675 16.5761C0.00114971 16.5536 -0.00145827 16.5298 0.000807131 16.5062C0.00700253 16.4563 0.0101591 16.406 0.0102602 16.3556V7.05019C0.0259345 6.88842 0.141687 6.56488 0.4793 6.56488H2.54236ZM6.08388 9.06387C6.0761 9.02574 6.05538 8.99147 6.02523 8.96686C5.99509 8.94226 5.95736 8.92882 5.91845 8.92883H4.07778C4.03301 8.92883 3.99008 8.94661 3.95842 8.97827C3.92676 9.00993 3.90898 9.05286 3.90898 9.09763V10.7857C3.90898 10.8305 3.92676 10.8734 3.95842 10.9051C3.99008 10.9367 4.03301 10.9545 4.07778 10.9545H6.25539C6.28048 10.9546 6.30528 10.9491 6.32798 10.9384C6.35068 10.9277 6.37072 10.9121 6.38663 10.8927C6.40254 10.8733 6.41392 10.8506 6.41996 10.8263C6.42599 10.8019 6.42651 10.7765 6.42149 10.7519L6.08388 9.06387Z" fill="#66788C"/>
<path d="M6.4249 16.3557C6.4249 16.7586 6.26484 17.1451 5.97992 17.43C5.695 17.7149 5.30857 17.8749 4.90564 17.8749C4.50271 17.8749 4.11628 17.7149 3.83137 17.43C3.54645 17.1451 3.38638 16.7586 3.38638 16.3557C3.38638 15.9528 3.54645 15.5663 3.83137 15.2814C4.11628 14.9965 4.50271 14.8364 4.90564 14.8364C5.30857 14.8364 5.695 14.9965 5.97992 15.2814C6.26484 15.5663 6.4249 15.9528 6.4249 16.3557Z" fill="#66788C"/>
<path fill-rule="evenodd" clip-rule="evenodd" d="M23.093 7.57466L21.1866 5.80428C20.9627 5.59733 20.6875 5.4539 20.3896 5.38882C20.0918 5.32374 19.7819 5.33936 19.492 5.43407L15.9621 6.58605C15.7041 6.66946 15.4697 6.8134 15.2786 7.00585C15.0876 7.19829 14.9453 7.43366 14.8637 7.6923L14.053 9.86506C14.0379 9.9054 14.008 9.93847 13.9694 9.95754C13.9308 9.97661 13.8863 9.98025 13.8451 9.96772L12.44 9.53785C11.9738 9.39652 11.4791 9.37767 11.0035 9.48311C10.528 9.58856 10.0876 9.81475 9.72481 10.1399C9.5917 10.2598 9.51167 10.4277 9.50234 10.6066C9.493 10.7855 9.55512 10.9608 9.67503 11.0939C9.79494 11.227 9.96281 11.307 10.1417 11.3164C10.3206 11.3257 10.4959 11.2636 10.629 11.1437C10.8181 10.9744 11.0475 10.8567 11.2952 10.8017C11.5429 10.7467 11.8006 10.7564 12.0435 10.8298L12.7531 11.0456C12.7825 11.0545 12.809 11.0713 12.8296 11.0941C12.8501 11.1169 12.8641 11.145 12.8699 11.1752C12.8758 11.2053 12.8732 11.2365 12.8626 11.2654C12.852 11.2943 12.8337 11.3197 12.8097 11.3389L11.7971 12.153C11.4803 12.3721 11.2448 12.6898 11.1272 13.0566C11.0096 13.4234 11.0165 13.8188 11.1469 14.1813C11.2773 14.5437 11.5237 14.853 11.848 15.0609C12.1723 15.2688 12.5562 15.3637 12.94 15.3308C12.9794 15.3277 13.0164 15.3108 13.0446 15.2832C13.0729 15.2555 13.0905 15.2189 13.0945 15.1796C13.133 14.7865 13.2863 14.4134 13.5353 14.1069C13.7843 13.8003 14.118 13.5737 14.4948 13.4554C14.8716 13.337 15.2749 13.3321 15.6545 13.4413C16.034 13.5504 16.3731 13.7688 16.6295 14.0692C16.6513 14.0945 16.68 14.1127 16.7121 14.1217C16.7442 14.1307 16.7783 14.13 16.81 14.1197L21.8026 12.4904C21.8343 12.4801 21.8621 12.4606 21.8826 12.4344C21.9032 12.4082 21.9155 12.3765 21.918 12.3434C21.9476 11.9559 22.0885 11.5852 22.3238 11.276C22.5591 10.9667 22.8788 10.732 23.2443 10.6001C23.4875 10.5124 23.744 10.4726 24 10.4817V7.9212L23.093 7.57466ZM19.5713 8.96287C19.6268 9.13309 19.6125 9.3184 19.5314 9.47804C19.4503 9.63768 19.3091 9.75858 19.1389 9.81413L16.0884 10.8096C16.0302 10.8287 15.968 10.8315 15.9084 10.818C15.8488 10.8044 15.7939 10.7748 15.7498 10.7325C15.7056 10.6902 15.6738 10.6366 15.6577 10.5776C15.6416 10.5186 15.6419 10.4563 15.6584 10.3974L16.2084 8.42906C16.2558 8.26021 16.3442 8.1057 16.4658 7.9793C16.5873 7.85289 16.7383 7.75852 16.9051 7.70458L18.3017 7.24881C18.4719 7.19326 18.6573 7.20761 18.8169 7.28869C18.9765 7.36977 19.0974 7.51095 19.153 7.68117L19.5713 8.96287Z" fill="#66788C"/>
<path d="M23.297 13.6909C22.9778 13.5287 22.736 13.2463 22.6249 12.9059C22.5138 12.5655 22.5425 12.1948 22.7046 11.8755C22.8668 11.5563 23.1491 11.3145 23.4896 11.2034C23.6544 11.1496 23.8262 11.1286 23.9959 11.1396V13.8344C23.7563 13.8499 23.5147 13.8014 23.297 13.6909Z" fill="#66788C"/>
<path d="M13.821 15.7893C13.9321 16.1298 14.1739 16.4121 14.4932 16.5743C14.8125 16.7364 15.1831 16.7651 15.5236 16.654C15.864 16.5429 16.1464 16.3011 16.3085 15.9819C16.4707 15.6626 16.4994 15.292 16.3883 14.9515C16.2772 14.6111 16.0354 14.3287 15.7161 14.1666C15.3968 14.0044 15.0262 13.9757 14.6858 14.0868C14.3453 14.1979 14.063 14.4397 13.9008 14.759C13.7386 15.0783 13.7099 15.4489 13.821 15.7893Z" fill="#66788C"/>
<path d="M9.13155 7.7953C9.13161 7.98738 9.16977 8.17754 9.24383 8.35476C9.31788 8.53199 9.42636 8.69276 9.56298 8.82778C9.65831 8.92243 9.78733 8.97533 9.92166 8.97485C10.056 8.97437 10.1846 8.92054 10.2793 8.82521C10.3739 8.72989 10.4268 8.60086 10.4263 8.46653C10.4259 8.3322 10.372 8.20356 10.2767 8.10891C10.2341 8.06796 10.2001 8.01886 10.1767 7.96454C10.1534 7.91021 10.1412 7.85176 10.1409 7.79264C10.1412 7.73346 10.1532 7.67493 10.1762 7.62041C10.1993 7.56589 10.2328 7.51647 10.275 7.47498C10.5482 7.20028 10.7011 6.82833 10.7001 6.44092C10.6991 6.0535 10.5442 5.68236 10.2696 5.40911C10.1744 5.31428 10.0455 5.26114 9.91119 5.26137C9.77686 5.2616 9.64812 5.31518 9.55329 5.41033C9.45846 5.50547 9.40532 5.6344 9.40555 5.76873C9.40577 5.90306 9.45936 6.0318 9.55451 6.12663C9.59634 6.16816 9.62957 6.21753 9.6523 6.27192C9.67503 6.3263 9.68681 6.38464 9.68696 6.44359C9.68712 6.50253 9.67565 6.56093 9.65321 6.61544C9.63076 6.66995 9.59779 6.71949 9.55618 6.76124C9.42054 6.89696 9.31316 7.05824 9.24028 7.23573C9.16739 7.41323 9.13044 7.60342 9.13155 7.7953Z" fill="#66788C"/>
<path d="M11.4945 7.78907C11.4945 7.98114 11.5327 8.1713 11.6067 8.34853C11.6808 8.52576 11.7893 8.68653 11.9259 8.82154C11.9731 8.86841 12.0291 8.90552 12.0906 8.93075C12.1522 8.95599 12.2181 8.96885 12.2846 8.96861C12.3511 8.96837 12.4169 8.95504 12.4783 8.92936C12.5396 8.90369 12.5953 8.86618 12.6422 8.81898C12.6891 8.77178 12.7262 8.71581 12.7514 8.65427C12.7766 8.59272 12.7895 8.52681 12.7893 8.4603C12.789 8.39378 12.7757 8.32797 12.75 8.26661C12.7243 8.20525 12.6868 8.14954 12.6396 8.10268C12.597 8.06172 12.563 8.01263 12.5397 7.9583C12.5163 7.90398 12.5041 7.84553 12.5038 7.7864C12.5041 7.72722 12.5161 7.66869 12.5392 7.61418C12.5622 7.55966 12.5958 7.51023 12.638 7.46874C12.9111 7.19405 13.064 6.82209 13.063 6.43468C13.062 6.04727 12.9071 5.67613 12.6325 5.40288C12.5854 5.35592 12.5295 5.31871 12.468 5.29336C12.4065 5.26801 12.3406 5.25502 12.2741 5.25513C12.1398 5.25536 12.011 5.30894 11.9162 5.40409C11.8693 5.45121 11.832 5.5071 11.8067 5.5686C11.7813 5.63009 11.7684 5.69598 11.7685 5.7625C11.7687 5.89683 11.8223 6.02557 11.9174 6.1204C11.9593 6.16192 11.9925 6.2113 12.0152 6.26568C12.0379 6.32007 12.0497 6.37841 12.0499 6.43735C12.05 6.4963 12.0386 6.5547 12.0161 6.60921C11.9937 6.66371 11.9607 6.71326 11.9191 6.75501C11.7835 6.89073 11.6761 7.052 11.6032 7.2295C11.5303 7.407 11.4934 7.59719 11.4945 7.78907Z" fill="#66788C"/>
<path d="M4.77366 3.77453C4.58769 3.77418 4.40347 3.81057 4.23159 3.8816C4.05971 3.95264 3.90356 4.05692 3.77209 4.18847C3.72701 4.23201 3.69105 4.28409 3.66631 4.34168C3.64158 4.39927 3.62856 4.4612 3.62801 4.52387C3.62747 4.58654 3.63941 4.6487 3.66314 4.7067C3.68688 4.76471 3.72192 4.81741 3.76624 4.86172C3.81056 4.90604 3.86326 4.94109 3.92126 4.96482C3.97927 4.98855 4.04142 5.0005 4.10409 4.99995C4.16676 4.99941 4.2287 4.98639 4.28628 4.96165C4.34387 4.93691 4.39595 4.90096 4.43949 4.85587C4.48333 4.81199 4.53538 4.77718 4.59268 4.75342C4.64998 4.72967 4.7114 4.71744 4.77343 4.71744C4.83546 4.71744 4.89688 4.72967 4.95418 4.75342C5.01148 4.77718 5.06353 4.81199 5.10737 4.85587C5.15091 4.90095 5.20299 4.93691 5.26057 4.96165C5.31816 4.98639 5.38009 4.99941 5.44277 4.99995C5.50544 5.0005 5.56759 4.98855 5.6256 4.96482C5.6836 4.94109 5.7363 4.90604 5.78062 4.86172C5.82494 4.81741 5.85998 4.76471 5.88372 4.7067C5.90745 4.64869 5.91939 4.58654 5.91885 4.52387C5.9183 4.4612 5.90528 4.39927 5.88054 4.34168C5.85581 4.28409 5.81985 4.23201 5.77477 4.18847C5.64339 4.05694 5.48732 3.95266 5.31552 3.88162C5.14372 3.81058 4.95957 3.77419 4.77366 3.77453Z" fill="#66788C"/>
<path d="M4.77367 1.88608C4.40162 1.88513 4.03307 1.95793 3.68932 2.10027C3.34558 2.24261 3.03345 2.45168 2.77099 2.71537C2.68501 2.80439 2.63744 2.92362 2.63851 3.04737C2.63959 3.17113 2.68923 3.28951 2.77674 3.37703C2.86425 3.46454 2.98263 3.51418 3.10639 3.51525C3.23015 3.51633 3.34937 3.46875 3.43839 3.38277C3.61371 3.20745 3.82184 3.06837 4.05091 2.97349C4.27998 2.8786 4.52549 2.82976 4.77343 2.82976C5.02137 2.82976 5.26689 2.8786 5.49595 2.97349C5.72502 3.06837 5.93316 3.20745 6.10847 3.38277C6.15229 3.42663 6.20432 3.46142 6.26159 3.48517C6.31886 3.50891 6.38025 3.52114 6.44224 3.52116C6.50424 3.52119 6.56563 3.509 6.62292 3.48529C6.6802 3.46159 6.73226 3.42683 6.77611 3.38301C6.81996 3.33919 6.85476 3.28716 6.8785 3.22989C6.90225 3.17262 6.91448 3.11124 6.9145 3.04924C6.91452 2.98724 6.90233 2.92585 6.87863 2.86857C6.85492 2.81128 6.82017 2.75923 6.77635 2.71537C6.51401 2.45151 6.20191 2.24233 5.85814 2.09998C5.51436 1.95762 5.14575 1.88492 4.77367 1.88608Z" fill="#66788C"/>
<path d="M4.77367 -2.45951e-05C4.21589 -0.000957109 3.66342 0.108262 3.14795 0.321366C2.63249 0.53447 2.16417 0.847263 1.76989 1.2418C1.72481 1.28534 1.68885 1.33742 1.66411 1.395C1.63938 1.45259 1.62636 1.51453 1.62581 1.5772C1.62527 1.63987 1.63721 1.70202 1.66094 1.76003C1.68467 1.81803 1.71972 1.87073 1.76404 1.91505C1.80836 1.95937 1.86105 1.99441 1.91906 2.01815C1.97707 2.04188 2.03922 2.05382 2.10189 2.05328C2.16456 2.05273 2.2265 2.03971 2.28408 2.01497C2.34167 1.99024 2.39375 1.95428 2.43729 1.9092C3.05741 1.29044 3.89765 0.94293 4.77367 0.94293C5.64969 0.94293 6.48994 1.29043 7.11005 1.9092C7.15359 1.95428 7.20567 1.99024 7.26326 2.01497C7.32084 2.03971 7.38278 2.05273 7.44545 2.05328C7.50812 2.05382 7.57027 2.04188 7.62828 2.01815C7.68629 1.99441 7.73899 1.95937 7.7833 1.91505C7.82762 1.87073 7.86267 1.81803 7.8864 1.76003C7.91013 1.70202 7.92207 1.63987 7.92153 1.5772C7.92098 1.51452 7.90796 1.45259 7.88323 1.395C7.85849 1.33742 7.82253 1.28534 7.77745 1.2418C7.38317 0.847262 6.91486 0.534469 6.39939 0.321366C5.88392 0.108262 5.33145 -0.000957207 4.77367 -2.45951e-05Z" fill="#66788C"/>
</svg>
